<svg width="22" height="23" viewBox="0 0 22 23" fill="none" xmlns="http://www.w3.org/2000/svg">
<path d="M11.0066 0.644405C16.5641 0.53849 21.9974 5.0468 22.002 11.6366C22.0066 17.7843 17.1345 22.6472 10.9974 22.6426C4.40934 22.6334 -0.108434 17.1488 0.00197996 11.4248C0.121595 5.51651 5.05802 0.552305 11.0066 0.644405ZM9.29055 19.7092C10.2889 19.7092 11.2596 19.7092 12.2533 19.7092C12.2533 18.475 12.2533 17.2501 12.2533 16.0252C12.2533 14.8048 12.2533 13.5845 12.2533 12.3365C13.2194 12.3365 14.1488 12.3365 15.0873 12.3365C15.0873 11.3741 15.0873 10.4347 15.0873 9.46301C14.1396 9.46301 13.2056 9.46301 12.2947 9.46301C12.2947 8.68016 12.2671 7.92954 12.3039 7.18353C12.3269 6.7 12.626 6.40068 13.1044 6.30397C13.3667 6.25332 13.6335 6.2395 13.9003 6.23029C14.3282 6.21648 14.7514 6.22569 15.1931 6.22569C15.1931 5.3231 15.1931 4.44354 15.1931 3.58241C14.2546 3.58241 13.3253 3.52254 12.4097 3.59622C10.7029 3.73898 9.52518 4.90865 9.35956 6.61251C9.27675 7.46444 9.31355 8.32557 9.29975 9.18211C9.29975 9.2696 9.29975 9.3617 9.29975 9.47222C8.45785 9.47222 7.64814 9.47222 6.83384 9.47222C6.83384 10.4347 6.83384 11.3695 6.83384 12.3458C7.66195 12.3458 8.47625 12.3458 9.29975 12.3458C9.29055 14.814 9.29055 17.2501 9.29055 19.7092Z" fill="#398378"/>
</svg>
