<svg width="22" height="23" viewBox="0 0 22 23" fill="none" xmlns="http://www.w3.org/2000/svg">
<path d="M10.8145 0.64441C16.9207 0.533984 21.9364 5.42954 22.0054 11.4708C22.0745 17.604 17.2106 22.587 11.132 22.6422C5.06253 22.6928 0.0744482 17.8203 0.000823433 11.8158C-0.0728014 5.7102 4.80024 0.745634 10.8145 0.64441ZM11.0077 17.9951C11.0077 17.9675 11.0077 17.9445 11.0077 17.9169C11.9096 17.9169 12.8161 17.9307 13.718 17.9123C14.3577 17.8985 14.9789 17.7604 15.5449 17.443C16.709 16.7804 17.2336 15.7222 17.2658 14.4385C17.3119 12.5796 17.298 10.7208 17.2704 8.86195C17.2566 7.96934 16.9759 7.15034 16.3501 6.47398C15.6507 5.72401 14.7626 5.40193 13.7779 5.38813C11.9326 5.35592 10.0874 5.35592 8.2422 5.38813C7.29888 5.40193 6.43839 5.7056 5.74816 6.39576C5.04412 7.09973 4.76803 7.97854 4.74042 8.93556C4.70361 10.2055 4.6944 11.4754 4.699 12.7453C4.699 13.4262 4.71741 14.1072 4.78183 14.7835C4.95209 16.5043 6.14849 17.7144 7.86487 17.8663C8.90942 17.9583 9.95858 17.9537 11.0077 17.9951Z" fill="#398378"/>
<path d="M11.0068 6.44531C11.9547 6.47292 12.9026 6.48672 13.8505 6.52813C14.3521 6.55114 14.8307 6.68917 15.2402 7.00204C15.82 7.43915 16.1007 8.05569 16.1099 8.75045C16.1375 10.6783 16.1605 12.6062 16.1053 14.5294C16.0685 15.8407 15.185 16.6919 13.869 16.7471C12.4103 16.8069 10.947 16.7977 9.48368 16.8023C8.9591 16.8023 8.42532 16.7931 7.90535 16.7149C6.68134 16.5355 5.92668 15.7579 5.89447 14.5248C5.84386 12.597 5.83926 10.6691 5.89447 8.74585C5.93129 7.43454 6.81478 6.62015 8.13083 6.51893C8.31949 6.50513 8.51275 6.48212 8.70142 6.48212C9.46527 6.47752 10.2337 6.48212 10.9976 6.48212C11.0068 6.47292 11.0068 6.45912 11.0068 6.44531ZM11.016 14.8837C12.8106 14.8791 14.2509 13.4297 14.2509 11.6353C14.2463 9.84091 12.7968 8.40077 11.0022 8.40537C9.20759 8.40997 7.7627 9.85931 7.7673 11.6537C7.7673 13.4436 9.22139 14.8883 11.016 14.8837ZM14.3889 7.51736C13.9656 7.51276 13.6251 7.84404 13.6205 8.26274C13.6159 8.68144 13.9564 9.02652 14.3751 9.02652C14.7847 9.02652 15.1206 8.69984 15.1298 8.28574C15.139 7.85784 14.8169 7.52196 14.3889 7.51736Z" fill="#398378"/>
<path d="M11.0262 9.54201C12.1903 9.54661 13.1153 10.4898 13.1107 11.6585C13.1061 12.8226 12.1627 13.7474 10.9939 13.7428C9.82975 13.7382 8.90484 12.795 8.90944 11.6263C8.91404 10.4622 9.85276 9.53741 11.0262 9.54201Z" fill="#398378"/>
</svg>
