<svg width="22" height="23" viewBox="0 0 22 23" fill="none" xmlns="http://www.w3.org/2000/svg">
<path d="M10.8227 0.644415C16.9146 0.533989 21.9298 5.41575 22.0034 11.457C22.077 17.6133 17.209 22.5916 11.1034 22.6423C5.06214 22.6883 0.0791465 17.8065 0.000927868 11.8297C-0.0772908 5.71482 4.79987 0.741038 10.8227 0.644415ZM9.30895 9.22546C9.30895 11.9125 9.30895 14.5857 9.30895 17.259C10.2016 17.259 11.0804 17.259 11.973 17.259C11.973 16.8449 11.973 16.4492 11.973 16.0535C11.9776 14.8756 11.973 13.6977 11.9914 12.5198C11.996 12.0321 12.2537 11.6594 12.6401 11.388C13.4131 10.8404 14.4208 11.1855 14.6784 12.0919C14.7566 12.3588 14.7889 12.6487 14.7935 12.9293C14.8027 14.2913 14.7981 15.6532 14.7981 17.0151C14.7981 17.0979 14.7981 17.1762 14.7981 17.2636C15.7045 17.2636 16.5787 17.2636 17.4621 17.2636C17.4667 17.213 17.4713 17.1762 17.4713 17.1393C17.4713 15.5612 17.4851 13.9876 17.4575 12.4094C17.4483 11.9631 17.3701 11.5076 17.2412 11.0797C16.9008 9.95243 16.1416 9.25307 14.9683 9.07362C13.7904 8.89418 12.7782 9.18405 12.0696 10.2147C12.0558 10.2377 12.0282 10.2515 11.9638 10.3113C11.9638 9.92023 11.9638 9.57054 11.9638 9.23006C11.0574 9.22546 10.1878 9.22546 9.30895 9.22546ZM5.14956 9.22546C5.14956 11.9125 5.14956 14.5857 5.14956 17.2544C6.04217 17.2544 6.92098 17.2544 7.79979 17.2544C7.79979 14.5719 7.79979 11.9033 7.79979 9.22546C6.91178 9.22546 6.03297 9.22546 5.14956 9.22546ZM6.45627 8.1166C7.30747 8.1258 7.91942 7.60587 7.98383 6.81909C8.04825 6.07831 7.53293 5.46636 6.74154 5.34674C5.93174 5.22251 5.19097 5.65961 5.01612 6.36358C4.78607 7.2976 5.44863 8.10739 6.45627 8.1166Z" fill="#398378"/>
</svg>
