<svg width="22" height="23" viewBox="0 0 22 23" fill="none" xmlns="http://www.w3.org/2000/svg">
<path d="M11 0.642578C13.9174 0.642578 16.7154 1.80136 18.7783 3.86426C20.8412 5.92716 22 8.7252 22 11.6426C22 14.56 20.8412 17.358 18.7783 19.4209C16.7154 21.4838 13.9174 22.6426 11 22.6426C8.08262 22.6426 5.28458 21.4838 3.22168 19.4209C1.15878 17.358 0 14.56 0 11.6426C6.31419e-08 8.7252 1.15878 5.92716 3.22168 3.86426C5.28458 1.80136 8.08262 0.642578 11 0.642578ZM17.6006 6.69141C17.0776 6.9988 16.1318 7.32744 15.5146 7.44629C15.0219 6.92386 14.3187 6.69147 13.54 6.69141C12.044 6.69141 11 7.95916 11 9.44141V10.541C8.80014 10.5408 6.65508 8.86526 5.32031 7.24121C5.08547 7.63776 4.9541 8.10218 4.9541 8.59277C4.95416 9.59319 5.87296 10.6089 6.60059 11.0918C6.15674 11.078 5.31595 10.7385 4.9502 10.541V10.5723C4.9502 11.874 5.86372 12.7584 7.10156 13.0049C6.8756 13.0672 6.59973 13.291 5.54004 13.291C5.88434 14.3553 7.61553 14.9183 8.80078 14.9414C7.87348 15.6603 6.21959 16.041 4.9502 16.041C4.73088 16.041 4.61207 16.0531 4.40039 16.0283C5.59829 16.7873 7.27178 17.1416 8.80078 17.1416C13.7818 17.1414 16.4999 13.3365 16.5 9.78809C16.5 9.67149 16.4963 9.28042 16.4902 9.16602C17.0226 8.79092 17.2387 8.39862 17.6006 7.85742C17.1155 8.07247 16.5007 8.2747 15.9502 8.3418C16.5101 8.0096 17.3987 7.3173 17.6006 6.69141Z" fill="#398378"/>
</svg>
